<?xml version="1.0" standalone="no"?>
<!DOCTYPE svg PUBLIC "-//W3C//DTD SVG 20010904//EN"
 "http://www.w3.org/TR/2001/REC-SVG-20010904/DTD/svg10.dtd">
<svg version="1.0" xmlns="http://www.w3.org/2000/svg"
 width="503.000000pt" height="496.000000pt" viewBox="0 0 503.000000 496.000000"
 preserveAspectRatio="xMidYMid meet">

<g transform="translate(0.000000,496.000000) scale(0.100000,-0.100000)"
fill="#000000" stroke="none">
<path d="M2369 3691 l-37 -6 132 -135 c110 -114 142 -141 201 -170 194 -94
313 -321 277 -531 -7 -39 -18 -82 -25 -95 l-13 -24 -49 50 -49 50 -183 0
c-101 0 -183 -3 -183 -8 0 -4 147 -154 328 -335 l327 -327 188 0 189 0 -185
186 -184 187 28 56 c52 105 74 203 73 336 0 231 -79 416 -243 568 -158 146
-407 229 -592 198z"/>
<path d="M1990 3546 c-25 -18 -73 -63 -107 -99 -136 -146 -203 -320 -203 -525
0 -290 173 -564 435 -688 127 -60 166 -67 425 -71 l235 -4 -130 130 -130 131
-63 0 c-167 0 -336 89 -426 223 -102 155 -114 361 -28 521 34 64 143 176 201
205 l44 23 -94 94 c-51 52 -98 94 -104 94 -5 0 -30 -15 -55 -34z"/>
</g>
</svg>
